<?xml version="1.0" encoding="UTF-8"?>
<svg xmlns="http://www.w3.org/2000/svg" viewBox="0 0 480 160" role="img" aria-label="Research OS">
  <title>Research OS</title>
  <desc>A pipeline of hexagons — input, process, output — beside the Research OS wordmark.</desc>
  <defs>
    <linearGradient id="hex" x1="0%" y1="0%" x2="100%" y2="0%">
      <stop offset="0%"  stop-color="#0aa"/>
      <stop offset="100%" stop-color="#06c"/>
    </linearGradient>
    <style>
      .wordmark { font-family: ui-monospace, "SF Mono", "Cascadia Code", Menlo, Consolas, monospace;
                  font-weight: 700; font-size: 28px; letter-spacing: 0.18em; fill: #111; }
      .tag      { font-family: ui-monospace, "SF Mono", "Cascadia Code", Menlo, Consolas, monospace;
                  font-size: 13px; letter-spacing: 0.06em; fill: #666; }
      .link     { stroke: url(#hex); stroke-width: 2; }
      .vert     { stroke: url(#hex); stroke-width: 2; stroke-dasharray: 2 3; opacity: 0.7; }
      .filled   { fill: url(#hex); }
      .outline  { fill: none; stroke: url(#hex); stroke-width: 2; }
    </style>
    <!-- Hexagon: pointy top, radius 18 -->
    <symbol id="hexFilled" viewBox="-22 -22 44 44">
      <polygon class="filled" points="0,-18 15.6,-9 15.6,9 0,18 -15.6,9 -15.6,-9"/>
    </symbol>
    <symbol id="hexOutline" viewBox="-22 -22 44 44">
      <polygon class="outline" points="0,-18 15.6,-9 15.6,9 0,18 -15.6,9 -15.6,-9"/>
    </symbol>
  </defs>

  <!-- Top row: filled hexagons (the inputs / processing / outputs) -->
  <use href="#hexFilled" x="40"  y="46" width="44" height="44"/>
  <use href="#hexFilled" x="100" y="46" width="44" height="44"/>
  <use href="#hexFilled" x="160" y="46" width="44" height="44"/>
  <!-- Horizontal links between filled row -->
  <line class="link" x1="84"  y1="46" x2="100" y2="46"/>
  <line class="link" x1="144" y1="46" x2="160" y2="46"/>

  <!-- Vertical links (data flowing down to outline row) -->
  <line class="vert" x1="62"  y1="68" x2="62"  y2="92"/>
  <line class="vert" x1="122" y1="68" x2="122" y2="92"/>
  <line class="vert" x1="182" y1="68" x2="182" y2="92"/>

  <!-- Bottom row: outline hexagons (the audited, citable artefacts) -->
  <use href="#hexOutline" x="40"  y="92" width="44" height="44"/>
  <use href="#hexOutline" x="100" y="92" width="44" height="44"/>
  <use href="#hexOutline" x="160" y="92" width="44" height="44"/>
  <line class="link" x1="84"  y1="114" x2="100" y2="114"/>
  <line class="link" x1="144" y1="114" x2="160" y2="114"/>

  <!-- Wordmark -->
  <text class="wordmark" x="240" y="84">RESEARCH OS</text>
  <text class="tag"      x="240" y="108">grounded · cited · auditable</text>
</svg>
